<svg height="512pt" viewBox="-91 0 512 512" width="512pt" xmlns="http://www.w3.org/2000/svg"><path d="m259.121094 10.40625v122.015625c0 28.683594-15.75 55.054687-41.007813 68.652344-32.316406 17.398437-71.078125 17.984375-103.90625 1.570312-26.625-13.3125-43.441406-40.527343-43.441406-70.292969v-121.945312c0-5.746094-4.660156-10.40625-10.40625-10.40625h-49.953125c-5.746094 0-10.40625 4.660156-10.40625 10.40625v120.292969c0 55.558593 29.921875 106.808593 78.304688 134.121093l50.734374 28.644532v208.128906c0 5.746094 4.660157 10.40625 10.40625 10.40625h49.953126c5.746093 0 10.40625-4.660156 10.40625-10.40625v-208.128906l51.316406-28.738282c48.640625-27.238281 78.765625-78.632812 78.765625-134.382812v-119.9375c0-5.746094-4.660157-10.40625-10.40625-10.40625h-49.953125c-5.746094 0-10.40625 4.660156-10.40625 10.40625zm0 0" fill="#db8d37"/><path d="m84.550781 202.644531c20.226563 11.011719 43.160157 14.941407 65.324219 11.796875-12.328125-1.746094-24.414062-5.671875-35.667969-11.796875-26.625-13.3125-43.441406-40.527343-43.441406-70.292969v-121.945312c0-5.746094-4.660156-10.40625-10.40625-10.40625h-19.253906v132.351562c0 29.765626 16.820312 56.980469 43.445312 70.292969zm0 0" fill="#bd7029"/><path d="m300.226562 0v108.492188c0 55.746093-30.121093 107.140624-78.761718 134.378906l-30.03125 16.816406c-13.144532 7.363281-21.285156 21.253906-21.285156 36.320312v159.796876c0 11.496093-9.320313 20.8125-20.8125 20.8125h-20.296876v24.976562c0 5.746094 4.660157 10.40625 10.40625 10.40625h49.953126c5.746093 0 10.40625-4.660156 10.40625-10.40625v-208.128906l51.316406-28.738282c48.640625-27.238281 78.765625-78.632812 78.765625-134.378906v-119.941406c0-5.746094-4.660157-10.40625-10.40625-10.40625zm0 0" fill="#bd7029"/><path d="m235.515625 395.15625c-2.574219 0-5.09375-1.269531-6.582031-3.601562-2.320313-3.628907-1.261719-8.457032 2.371094-10.777344 7.511718-4.804688 14.523437-10.445313 20.839843-16.761719 23.289063-23.289063 36.117188-54.257813 36.117188-87.203125v-191.480469c0-4.308593 3.492187-7.804687 7.804687-7.804687 4.308594 0 7.804688 3.496094 7.804688 7.804687v191.480469c0 37.117188-14.449219 72.003906-40.6875 98.242188-7.113282 7.109374-15.007813 13.460937-23.46875 18.871093-1.304688.832031-2.761719 1.230469-4.199219 1.230469zm0 0" fill="#57565c"/><path d="m94.367188 395.15625c-1.4375 0-2.894532-.398438-4.195313-1.230469-40.171875-25.707031-64.15625-69.488281-64.15625-117.113281v-191.480469c0-4.308593 3.496094-7.804687 7.804687-7.804687 4.3125 0 7.808594 3.496094 7.808594 7.804687v191.480469c0 42.277344 21.292969 81.140625 56.957032 103.964844 3.628906 2.324218 4.6875 7.148437 2.363281 10.78125-1.488281 2.328125-4.007813 3.597656-6.582031 3.597656zm0 0" fill="#57565c"/><path d="m0 43.707031h70.765625v41.625h-70.765625zm0 0" fill="#ffe266"/><path d="m41.105469 43.707031h29.660156v41.625h-29.660156zm0 0" fill="#fcd21d"/><path d="m164.941406 439.152344c-23.273437 0-45.617187-4.929688-66.316406-14.410156-11.609375-5.316407-15.835938-19.664063-8.851562-30.351563l10.738281-16.449219c5.453125-8.347656 16.097656-11.742187 25.296875-7.882812 12.28125 5.152344 25.535156 7.695312 39.132812 7.695312 13.605469 0 26.855469-2.542968 39.136719-7.695312 9.199219-3.859375 19.84375-.464844 25.292969 7.882812l10.742187 16.449219c6.980469 10.6875 2.757813 25.035156-8.851562 30.351563-20.703125 9.480468-43.042969 14.410156-66.320313 14.410156zm0 0" fill="#f26d33"/><path d="m243.445312 407.238281c.332032-4.515625-.855468-9.058593-3.332031-12.847656l-10.738281-16.449219c-5.46875-8.371094-16.136719-11.714844-25.359375-7.855468-3.050781 1.277343-6.164063 2.394531-9.328125 3.347656 1.511719 1.285156 2.871094 2.785156 3.996094 4.507812l3.117187 4.769532c8.347657 12.785156.542969 29.890624-14.578125 32.007812-7.3125 1.019531-14.746094 1.539062-22.28125 1.539062-23.273437 0-45.617187-4.929687-66.316406-14.410156-3.746094-1.714844-6.71875-4.375-8.796875-7.542968l-.042969.0625c-7.003906 10.726562-2.71875 25.085937 8.933594 30.414062 17.214844 7.871094 35.5625 12.585938 54.636719 13.945312 26.382812 1.921876 53.082031-2.761718 77.191406-13.660156 7.195313-3.25 12.320313-9.8125 12.898437-17.828125.050782-.710937-.003906.050781 0 0zm0 0" fill="#e0501e"/><path d="m259.121094 43.707031h70.765625v41.625h-70.765625zm0 0" fill="#ffe266"/><path d="m300.226562 43.707031h29.660157v41.625h-29.660157zm0 0" fill="#fcd21d"/></svg>