<?xml version="1.0" encoding="iso-8859-1"?>
<!-- Generator: Adobe Illustrator 19.0.0, SVG Export Plug-In . SVG Version: 6.00 Build 0)  -->
<svg version="1.1" id="Capa_1" xmlns="http://www.w3.org/2000/svg" xmlns:xlink="http://www.w3.org/1999/xlink" x="0px" y="0px"
	 viewBox="0 0 480 480" style="enable-background:new 0 0 480 480;" xml:space="preserve">
<path style="fill:#91DC5A;" d="M464,240c0,19.336-18.272,36-23.04,53.856c-4.928,18.456,2.4,42.008-6.944,58.168
	c-9.48,16.392-33.64,21.752-46.936,35.056s-18.672,37.456-35.08,46.936c-16.16,9.352-39.712,2.016-58.168,6.944
	C276,445.728,259.336,464,240,464s-36-18.272-53.856-23.04c-18.456-4.928-42.008,2.4-58.168-6.944
	c-16.392-9.48-21.752-33.64-35.056-46.936S55.464,368.408,45.984,352c-9.352-16.16-2.016-39.712-6.944-58.168
	C34.272,276,16,259.336,16,240s18.272-36,23.04-53.856c4.928-18.456-2.4-42.008,6.944-58.168c9.48-16.392,33.6-21.752,46.936-35.056
	S111.592,55.464,128,45.984c16.16-9.352,39.712-2.016,58.168-6.944C204,34.272,220.664,16,240,16s36,18.272,53.856,23.04
	c18.456,4.928,42.008-2.4,58.168,6.944c16.392,9.48,21.752,33.6,35.056,46.936s37.456,18.672,46.936,35.08
	c9.352,16.16,2.016,39.712,6.944,58.168C445.728,204,464,220.664,464,240z"/>
<g>
	<path style="fill:#231F20;" d="M240,480c-14.08,0-24.512-11.52-34.6-22.672c-5.059-6.876-11.649-12.48-19.248-16.368
		c-8.88-0.533-17.761,1.037-25.92,4.584c-14.04,4.48-28.536,9.112-40.272,2.32c-11.912-6.888-15.152-21.912-18.288-36.44
		c-0.965-8.689-3.963-17.029-8.752-24.344c-7.319-4.794-15.664-7.795-24.36-8.76c-14.52-3.136-29.536-6.4-36.424-18.28
		c-6.792-11.744-2.16-26.24,2.32-40.272c3.55-8.155,5.121-17.034,4.584-25.912c-3.886-7.603-9.49-14.196-16.368-19.256
		C11.52,264.512,0,254.08,0,240s11.52-24.512,22.672-34.6c6.876-5.059,12.48-11.649,16.368-19.248
		c0.539-8.881-1.032-17.763-4.584-25.92c-4.48-14.032-9.112-28.536-2.32-40.272c6.888-11.912,21.912-15.152,36.44-18.288
		c8.689-0.965,17.029-3.963,24.344-8.752c4.808-7.315,7.823-15.661,8.8-24.36c3.136-14.52,6.4-29.536,18.28-36.424
		c11.752-6.8,26.256-2.152,40.272,2.32c8.157,3.545,17.034,5.115,25.912,4.584c7.603-3.886,14.196-9.49,19.256-16.368
		C215.488,11.52,225.92,0,240,0c14.08,0,24.512,11.52,34.6,22.672c5.059,6.876,11.649,12.48,19.248,16.368
		c8.88,0.533,17.761-1.037,25.92-4.584c14.04-4.48,28.536-9.112,40.272-2.32c11.912,6.888,15.152,21.912,18.288,36.44
		c0.965,8.689,3.963,17.029,8.752,24.344c7.315,4.808,15.661,7.823,24.36,8.8c14.52,3.136,29.536,6.4,36.424,18.28
		c6.792,11.744,2.16,26.24-2.32,40.272c-3.55,8.155-5.121,17.034-4.584,25.912c3.886,7.603,9.49,14.196,16.368,19.256
		C468.48,215.488,480,225.92,480,240c0,14.08-11.52,24.512-22.672,34.6c-6.876,5.059-12.48,11.649-16.368,19.248
		c-0.539,8.881,1.032,17.763,4.584,25.92c4.48,14.032,9.112,28.536,2.32,40.272c-6.888,11.912-21.912,15.152-36.44,18.288
		c-8.689,0.965-17.029,3.963-24.344,8.752c-4.794,7.319-7.795,15.664-8.76,24.36c-3.136,14.52-6.4,29.536-18.28,36.424
		c-11.76,6.8-26.248,2.16-40.272-2.32c-8.157-3.545-17.034-5.115-25.912-4.584c-7.603,3.886-14.196,9.49-19.256,16.368
		C264.512,468.48,254.08,480,240,480z M182.168,424.496c2.736-0.017,5.463,0.322,8.112,1.008
		c10.761,4.413,20.096,11.71,26.976,21.088C225.008,455.152,233.016,464,240,464s14.992-8.848,22.744-17.408
		c6.88-9.381,16.218-16.679,26.984-21.088c11.855-1.635,23.931,0.025,34.904,4.8c10.704,3.416,21.776,6.952,27.4,3.712
		c5.768-3.336,8.248-14.84,10.648-25.952c1.302-11.766,5.832-22.943,13.088-32.296c7.776-7.792,20.232-10.48,32.28-13.08
		c11.12-2.4,22.624-4.88,25.976-10.664c3.2-5.6-0.296-16.68-3.72-27.392c-4.784-10.973-6.445-23.055-4.8-34.912
		c4.413-10.761,11.71-20.096,21.088-26.976C455.152,254.992,464,246.984,464,240s-8.848-14.992-17.408-22.744
		c-9.381-6.88-16.679-16.218-21.088-26.984c-1.644-11.855,0.017-23.933,4.8-34.904c3.424-10.712,6.952-21.792,3.712-27.4
		c-3.336-5.768-14.84-8.248-25.952-10.648c-11.766-1.302-22.943-5.832-32.296-13.088c-7.792-7.776-10.48-20.232-13.08-32.28
		c-2.4-11.12-4.88-22.624-10.664-25.976c-5.6-3.2-16.664,0.296-27.392,3.72c-10.975,4.779-23.055,6.44-34.912,4.8
		c-10.761-4.413-20.096-11.71-26.976-21.088C254.992,24.848,246.984,16,240,16s-14.992,8.848-22.744,17.408
		c-6.88,9.381-16.218,16.679-26.984,21.088c-10.784,2.896-23.056-1.008-34.904-4.8C144.656,46.272,133.6,42.72,128,45.984
		c-5.768,3.336-8.248,14.84-10.648,25.952c-1.302,11.766-5.832,22.943-13.088,32.296c-7.776,7.792-20.232,10.48-32.28,13.08
		c-11.12,2.4-22.624,4.88-25.976,10.664c-3.2,5.6,0.296,16.68,3.72,27.392c4.784,10.973,6.445,23.055,4.8,34.912
		c-4.413,10.761-11.71,20.096-21.088,26.976C24.848,225.008,16,233.016,16,240c0,6.984,8.848,14.992,17.408,22.744
		c9.381,6.88,16.679,16.218,21.088,26.984c1.644,11.855-0.017,23.933-4.8,34.904C46.272,335.344,42.744,346.4,45.984,352
		c3.336,5.768,14.84,8.248,25.952,10.648c11.766,1.302,22.943,5.832,32.296,13.088c7.792,7.776,10.48,20.232,13.08,32.28
		c2.4,11.12,4.88,22.624,10.664,25.976c5.6,3.2,16.656-0.296,27.392-3.72C163.964,427.024,172.997,425.077,182.168,424.496
		L182.168,424.496z"/>
	<path style="fill:#231F20;" d="M240,96c-4.418,0-8-3.582-8-8V72c0-4.418,3.582-8,8-8s8,3.582,8,8v16C248,92.418,244.418,96,240,96z
		"/>
	<path style="fill:#231F20;" d="M200.648,101.176c-3.618-0.003-6.783-2.434-7.72-5.928L188.8,79.8
		c-1.26-4.235,1.152-8.689,5.387-9.949c4.235-1.26,8.689,1.152,9.949,5.387c0.041,0.138,0.078,0.277,0.112,0.417l4.144,15.456
		c1.14,4.266-1.392,8.648-5.656,9.792C202.056,101.089,201.353,101.18,200.648,101.176L200.648,101.176z"/>
	<path style="fill:#231F20;" d="M164,116.368c-2.861,0.003-5.506-1.522-6.936-4l-8-13.864c-2.234-3.812-0.956-8.713,2.856-10.947
		c3.812-2.234,8.713-0.956,10.947,2.856c0.018,0.03,0.035,0.061,0.053,0.092l8,13.864c2.209,3.826,0.898,8.719-2.928,10.928
		C166.778,115.997,165.402,116.367,164,116.368z"/>
	<path style="fill:#231F20;" d="M132.52,140.52c-2.122,0-4.156-0.844-5.656-2.344l-11.32-11.32
		c-3.178-3.069-3.266-8.134-0.197-11.312c3.069-3.178,8.134-3.266,11.312-0.197c0.067,0.064,0.132,0.13,0.197,0.197l11.32,11.32
		c3.124,3.125,3.123,8.19-0.002,11.314C136.675,139.677,134.641,140.52,132.52,140.52L132.52,140.52z"/>
	<path style="fill:#231F20;" d="M121.2,366.8c-4.418-0.001-7.999-3.583-7.998-8.002c0-2.121,0.843-4.154,2.342-5.654l11.32-11.32
		c3.178-3.069,8.243-2.982,11.312,0.196c2.994,3.1,2.994,8.015,0,11.116l-11.32,11.32C125.356,365.956,123.322,366.8,121.2,366.8
		L121.2,366.8z"/>
	<path style="fill:#231F20;" d="M156,393.496c-4.418-0.005-7.996-3.59-7.992-8.008c0.001-1.401,0.371-2.778,1.072-3.992l8-13.864
		c2.234-3.812,7.136-5.09,10.947-2.856c3.776,2.214,5.072,7.051,2.909,10.856l-8,13.864
		C161.506,391.974,158.861,393.499,156,393.496z"/>
	<path style="fill:#231F20;" d="M196.52,410.272c-4.418,0.001-8-3.581-8.001-7.999c0-0.7,0.092-1.397,0.273-2.073l4.136-15.448
		c1.163-4.263,5.561-6.776,9.823-5.613c4.234,1.155,6.747,5.504,5.633,9.749l-4.144,15.456
		C203.303,407.838,200.138,410.269,196.52,410.272z"/>
	<path style="fill:#231F20;" d="M240,416c-4.418,0-8-3.582-8-8v-16c0-4.418,3.582-8,8-8s8,3.582,8,8v16
		C248,412.418,244.418,416,240,416z"/>
	<path style="fill:#231F20;" d="M283.48,410.272c-3.618-0.003-6.783-2.434-7.72-5.928l-4.144-15.456
		c-1.122-4.274,1.433-8.647,5.707-9.769c4.245-1.114,8.594,1.399,9.749,5.633l4.136,15.448c1.144,4.268-1.388,8.655-5.655,9.799
		C284.877,410.18,284.18,410.272,283.48,410.272L283.48,410.272z"/>
	<path style="fill:#231F20;" d="M324,393.496c-2.861,0.003-5.506-1.522-6.936-4l-8-13.864c-2.235-3.811-0.957-8.713,2.854-10.948
		c3.811-2.235,8.713-0.957,10.948,2.854c0.018,0.031,0.036,0.062,0.054,0.093l8,13.864c2.209,3.826,0.898,8.719-2.928,10.928
		C326.778,393.125,325.401,393.495,324,393.496L324,393.496z"/>
	<path style="fill:#231F20;" d="M358.8,366.8c-2.122,0-4.156-0.844-5.656-2.344l-11.32-11.32c-3.07-3.178-2.982-8.242,0.196-11.312
		c3.1-2.995,8.016-2.995,11.116,0l11.32,11.32c3.124,3.125,3.123,8.19-0.002,11.314C362.954,365.957,360.921,366.8,358.8,366.8z"/>
	<path style="fill:#231F20;" d="M347.48,140.52c-4.418-0.001-7.999-3.583-7.998-8.002c0-2.121,0.843-4.155,2.342-5.654l11.32-11.32
		c3.069-3.178,8.134-3.266,11.312-0.196c3.178,3.069,3.266,8.134,0.196,11.312c-0.064,0.067-0.13,0.132-0.196,0.196l-11.32,11.32
		C351.636,139.676,349.602,140.52,347.48,140.52L347.48,140.52z"/>
	<path style="fill:#231F20;" d="M316,116.368c-4.418-0.005-7.996-3.59-7.992-8.008c0.001-1.402,0.371-2.778,1.072-3.992l8-13.864
		c2.183-3.841,7.067-5.185,10.908-3.002c3.841,2.183,5.185,7.067,3.002,10.908c-0.018,0.031-0.036,0.062-0.054,0.093l-8,13.864
		C321.506,114.846,318.861,116.371,316,116.368L316,116.368z"/>
	<path style="fill:#231F20;" d="M279.352,101.176c-0.702,0.004-1.402-0.088-2.08-0.272c-4.264-1.144-6.796-5.526-5.656-9.792
		l4.144-15.456c1.029-4.297,5.347-6.946,9.643-5.917c4.297,1.029,6.946,5.347,5.917,9.643c-0.034,0.14-0.071,0.279-0.112,0.417
		l-4.136,15.448C286.135,98.742,282.97,101.173,279.352,101.176L279.352,101.176z"/>
	<path style="fill:#231F20;" d="M264,192c4.418,0,8-3.582,8-8s-3.582-8-8-8h-64c-4.418,0-8,3.582-8,8v112c0,4.418,3.582,8,8,8h64
		c4.418,0,8-3.582,8-8s-3.582-8-8-8h-56v-40h40c4.418,0,8-3.582,8-8s-3.582-8-8-8h-40v-40H264z"/>
	<path style="fill:#231F20;" d="M160,176c-4.418,0-8,3.582-8,8v87.04l-65.496-91.688c-0.12-0.176-0.312-0.264-0.456-0.424
		c-0.361-0.425-0.769-0.809-1.216-1.144c-0.378-0.303-0.782-0.57-1.208-0.8c-0.448-0.215-0.913-0.389-1.392-0.52
		c-0.52-0.166-1.056-0.273-1.6-0.32c-0.216,0-0.4-0.128-0.624-0.128c-0.27,0.04-0.537,0.096-0.8,0.168
		c-0.543,0.046-1.08,0.15-1.6,0.312c-0.52,0.173-1.021,0.398-1.496,0.672c-0.256,0.102-0.507,0.216-0.752,0.344
		c-0.176,0.12-0.264,0.312-0.424,0.456c-0.425,0.361-0.809,0.769-1.144,1.216c-0.303,0.375-0.571,0.776-0.8,1.2
		c-0.222,0.454-0.399,0.928-0.528,1.416c-0.16,0.521-0.267,1.057-0.32,1.6c0,0.224-0.128,0.416-0.128,0.64V296c0,4.418,3.582,8,8,8
		c4.418,0,8-3.582,8-8v-87.04l65.496,91.688c0.104,0.152,0.28,0.208,0.4,0.344c0.555,0.668,1.217,1.238,1.96,1.688
		c0.256,0.189,0.523,0.362,0.8,0.52c1.037,0.509,2.173,0.782,3.328,0.8c0.954-0.019,1.897-0.209,2.784-0.56
		c0.301-0.131,0.595-0.277,0.88-0.44c0.336-0.143,0.662-0.309,0.976-0.496c0.176-0.12,0.264-0.312,0.424-0.456
		c0.425-0.361,0.809-0.769,1.144-1.216c0.646-0.754,1.103-1.651,1.336-2.616c0.159-0.521,0.267-1.057,0.32-1.6
		c0-0.224,0.128-0.416,0.128-0.64V184C167.992,179.585,164.415,176.004,160,176L160,176z"/>
	<path style="fill:#231F20;" d="M401.68,176.176c-4.32-0.929-8.574,1.82-9.503,6.139c0,0.002-0.001,0.003-0.001,0.005
		l-17.856,83.344l-22.736-68.192c-1.38-4.197-5.901-6.482-10.098-5.102c-2.415,0.794-4.308,2.687-5.102,5.102l-22.704,68.192
		l-17.856-83.344c-0.928-4.321-5.183-7.072-9.504-6.144c-4.321,0.928-7.072,5.183-6.144,9.504l24,112
		c0.758,3.523,3.778,6.104,7.376,6.304c3.583,0.163,6.844-2.06,8-5.456L344,225.296l24.416,73.232
		c1.088,3.266,4.142,5.469,7.584,5.472h0.448c3.598-0.2,6.618-2.781,7.376-6.304l24-112c0.937-4.318-1.803-8.578-6.121-9.515
		C401.695,176.179,401.688,176.178,401.68,176.176L401.68,176.176z"/>
</g>
<g>
</g>
<g>
</g>
<g>
</g>
<g>
</g>
<g>
</g>
<g>
</g>
<g>
</g>
<g>
</g>
<g>
</g>
<g>
</g>
<g>
</g>
<g>
</g>
<g>
</g>
<g>
</g>
<g>
</g>
</svg>
