<svg width="30" height="24" viewBox="0 0 30 24" fill="none" xmlns="http://www.w3.org/2000/svg">
<path d="M28.7 6.3L25 2.6C23.3 0.9 21 0 18.6 0H18.4C18 0 17.7 0.2 17.5 0.5C17 1.4 16.1 2 15 2C13.9 2 13 1.4 12.4 0.5C12.2 0.2 11.9 0 11.6 0H11.4C8.90001 0 6.60001 0.9 4.90001 2.6L1.20001 6.3C0.800013 6.7 0.800013 7.2 1.10001 7.6L5.10001 12.6C5.40001 12.8 5.70001 13 5.90001 13C6.20001 13 6.50001 12.9 6.70001 12.7L8.00001 11.4V23C8.00001 23.6 8.40001 24 9.00001 24H21C21.6 24 22 23.6 22 23V11.4L23.3 12.7C23.5 12.9 23.8 13 24.1 13C24.4 13 24.6 12.8 24.8 12.6L28.8 7.6C29.1 7.2 29.1 6.7 28.7 6.3Z" fill="white"/>
</svg>
